<?xml version="1.0" encoding="utf-8"?>
<!-- Generator: Adobe Illustrator 22.1.0, SVG Export Plug-In . SVG Version: 6.00 Build 0)  -->
<svg version="1.1" id="Layer_1" xmlns="http://www.w3.org/2000/svg" xmlns:xlink="http://www.w3.org/1999/xlink" x="0px" y="0px"
	 viewBox="0 0 288 100" style="enable-background:new 0 0 288 100;" xml:space="preserve">
<style type="text/css">
	.st0{fill:#34B6FF;}
	.st1{fill:none;stroke:#34B6FF;stroke-width:5.88;stroke-miterlimit:10;}
</style>
<circle class="st0" cx="46.4" cy="51.2" r="9.3"/>
<circle class="st1" cx="46.4" cy="51.2" r="22.6"/>
<g>
	<g>
		<path class="st0" d="M111,40.6c-0.3-0.4-0.8-0.8-1.4-1.2c-0.6-0.4-1.2-0.7-1.9-1c-0.7-0.3-1.5-0.5-2.4-0.7
			c-0.8-0.2-1.7-0.3-2.7-0.3c-2.4,0-4.1,0.4-5.2,1.3c-1.1,0.9-1.7,2.1-1.7,3.7c0,1.1,0.3,1.9,0.9,2.6c0.6,0.6,1.5,1.1,2.7,1.5
			c1.2,0.4,2.7,0.8,4.5,1.2c2.1,0.5,4,1,5.5,1.7c1.6,0.7,2.7,1.5,3.6,2.6c0.8,1.1,1.3,2.6,1.3,4.4c0,1.5-0.3,2.7-0.8,3.8
			s-1.3,2-2.3,2.7c-1,0.7-2.2,1.2-3.5,1.5c-1.4,0.3-2.8,0.5-4.4,0.5c-1.6,0-3.1-0.2-4.5-0.5c-1.5-0.3-2.9-0.8-4.2-1.4
			c-1.3-0.6-2.6-1.4-3.7-2.4l1.9-3.3c0.5,0.5,1.1,1,1.8,1.4c0.7,0.5,1.6,0.9,2.5,1.3c0.9,0.4,1.9,0.7,3,1c1.1,0.2,2.2,0.4,3.4,0.4
			c2.2,0,3.9-0.4,5.1-1.2c1.2-0.8,1.8-1.9,1.8-3.5c0-1.1-0.3-2.1-1-2.8c-0.7-0.7-1.7-1.3-3-1.7c-1.3-0.5-2.9-0.9-4.8-1.4
			c-2.1-0.5-3.8-1.1-5.2-1.7c-1.4-0.6-2.5-1.4-3.2-2.4c-0.7-1-1.1-2.3-1.1-3.9c0-1.9,0.5-3.6,1.4-4.9c0.9-1.3,2.3-2.4,3.9-3.1
			c1.7-0.7,3.5-1,5.6-1c1.4,0,2.7,0.1,3.9,0.4c1.2,0.3,2.3,0.7,3.3,1.2c1,0.5,2,1.1,2.8,1.9L111,40.6z"/>
		<path class="st0" d="M128.7,65.3c-1.7,0-3.2-0.3-4.6-0.9c-1.4-0.6-2.6-1.5-3.6-2.5c-1-1.1-1.8-2.3-2.4-3.7
			c-0.6-1.4-0.8-2.9-0.8-4.5c0-2.1,0.5-4,1.5-5.8c1-1.7,2.3-3.1,4.1-4.2c1.7-1.1,3.7-1.6,6-1.6c2.3,0,4.2,0.5,5.9,1.6
			c1.7,1.1,3,2.5,3.9,4.2c0.9,1.7,1.4,3.6,1.4,5.6c0,0.3,0,0.6,0,0.8c0,0.3,0,0.5-0.1,0.6h-18.7c0.1,1.4,0.5,2.7,1.2,3.9
			c0.7,1.1,1.6,2,2.7,2.6c1.1,0.6,2.3,1,3.6,1c1.4,0,2.7-0.3,3.9-1c1.2-0.7,2.1-1.6,2.5-2.7l3.3,0.9c-0.5,1.1-1.2,2.1-2.2,2.9
			c-1,0.9-2.1,1.5-3.4,2C131.6,65,130.2,65.3,128.7,65.3z M121.1,52.3h15.4c-0.1-1.4-0.5-2.7-1.3-3.8c-0.7-1.1-1.6-2-2.8-2.6
			c-1.1-0.6-2.4-0.9-3.7-0.9c-1.3,0-2.5,0.3-3.7,0.9c-1.1,0.6-2,1.5-2.7,2.6C121.6,49.6,121.2,50.9,121.1,52.3z"/>
		<path class="st0" d="M144.3,33.4h3.8v25.8c0,1.2,0.2,2,0.5,2.3s0.8,0.4,1.2,0.4c0.6,0,1.2-0.1,1.7-0.2c0.5-0.1,1-0.3,1.4-0.4
			l0.6,3.1c-0.6,0.3-1.4,0.5-2.2,0.6c-0.9,0.2-1.6,0.3-2.3,0.3c-1.5,0-2.6-0.4-3.5-1.3c-0.8-0.8-1.3-2-1.3-3.5V33.4z"/>
		<path class="st0" d="M156.6,33.4h3.8v25.8c0,1.2,0.2,2,0.5,2.3s0.8,0.4,1.2,0.4c0.6,0,1.2-0.1,1.7-0.2c0.5-0.1,1-0.3,1.4-0.4
			l0.6,3.1c-0.6,0.3-1.4,0.5-2.2,0.6c-0.9,0.2-1.6,0.3-2.3,0.3c-1.5,0-2.6-0.4-3.5-1.3c-0.8-0.8-1.3-2-1.3-3.5V33.4z"/>
		<path class="st0" d="M169.5,64.8V34.2h12.8c1.4,0,2.6,0.3,3.7,0.8s2.1,1.3,2.9,2.2c0.8,0.9,1.5,2,1.9,3.1c0.5,1.2,0.7,2.4,0.7,3.6
			c0,1.7-0.4,3.3-1.1,4.8c-0.7,1.5-1.8,2.7-3.1,3.7c-1.4,0.9-2.9,1.4-4.7,1.4h-9.1v11H169.5z M173.3,50.4h8.9c1.1,0,2-0.3,2.8-0.9
			c0.8-0.6,1.4-1.4,1.9-2.3c0.4-1,0.7-2,0.7-3.2c0-1.2-0.3-2.3-0.8-3.3c-0.5-1-1.2-1.7-2-2.3c-0.8-0.5-1.8-0.8-2.8-0.8h-8.7V50.4z"
			/>
		<path class="st0" d="M205.6,65.3c-1.7,0-3.2-0.3-4.6-0.9s-2.6-1.5-3.6-2.5c-1-1.1-1.8-2.3-2.3-3.7c-0.5-1.4-0.8-2.9-0.8-4.4
			c0-1.6,0.3-3.1,0.8-4.5c0.5-1.4,1.3-2.6,2.3-3.7c1-1.1,2.2-1.9,3.6-2.5c1.4-0.6,2.9-0.9,4.6-0.9c1.7,0,3.2,0.3,4.6,0.9
			c1.4,0.6,2.6,1.5,3.6,2.5c1,1.1,1.8,2.3,2.3,3.7c0.5,1.4,0.8,2.9,0.8,4.5c0,1.5-0.3,3-0.8,4.4c-0.5,1.4-1.3,2.6-2.3,3.7
			c-1,1.1-2.2,1.9-3.6,2.5C208.8,65,207.3,65.3,205.6,65.3z M198.1,53.8c0,1.5,0.3,2.9,1,4.2c0.7,1.3,1.6,2.2,2.7,3s2.4,1.1,3.8,1.1
			s2.6-0.4,3.8-1.1c1.1-0.7,2-1.7,2.7-3c0.7-1.3,1-2.7,1-4.2c0-1.5-0.3-2.9-1-4.2c-0.7-1.3-1.6-2.2-2.7-3c-1.1-0.7-2.4-1.1-3.8-1.1
			s-2.6,0.4-3.8,1.1s-2,1.8-2.7,3C198.4,50.8,198.1,52.2,198.1,53.8z"/>
		<path class="st0" d="M221.6,38.1v-4.7h3.8v4.7H221.6z M221.6,64.8V42.3h3.8v22.5H221.6z"/>
		<path class="st0" d="M251,64.8h-3.8V52.4c0-2.4-0.4-4.1-1.1-5.2c-0.7-1.1-1.8-1.6-3.3-1.6c-1,0-2.1,0.3-3.1,0.8
			c-1,0.5-1.9,1.2-2.7,2.1c-0.8,0.9-1.4,1.9-1.7,3v13.5h-3.8V42.5h3.4v4.8c0.6-1.1,1.4-2,2.3-2.7c0.9-0.8,2-1.4,3.2-1.8
			c1.2-0.4,2.5-0.6,3.8-0.6c1.3,0,2.4,0.2,3.3,0.7c0.9,0.5,1.6,1.1,2.1,2c0.5,0.8,0.9,1.8,1.1,3c0.2,1.1,0.3,2.4,0.3,3.7V64.8z"/>
		<path class="st0" d="M268.6,63.8c-0.3,0.1-0.7,0.3-1.3,0.6c-0.5,0.2-1.2,0.4-1.9,0.6c-0.7,0.2-1.5,0.3-2.3,0.3
			c-0.9,0-1.8-0.2-2.5-0.5s-1.4-0.8-1.9-1.6c-0.5-0.7-0.7-1.6-0.7-2.7V45.4h-3.1v-3h3.1V35h3.8v7.5h5v3h-5v14
			c0.1,0.8,0.3,1.4,0.8,1.8c0.5,0.4,1.1,0.6,1.7,0.6c0.7,0,1.4-0.1,2.1-0.4c0.6-0.3,1-0.4,1.3-0.6L268.6,63.8z"/>
	</g>
</g>
</svg>
